@startuml
class screens.MemoryGameActivity {
- {static} long TURN_TIME_LIMIT
- {static} long TOTAL_GAME_TIME_LIMIT
- Map<String,String> imageCache
~ ImageUtil imageUtil
- RecyclerView recyclerCards
- boolean endDialogShown
- String roomId
- User user
- GameRoom currentRoom
- MemoryGameAdapter adapter
- TextView tvTimer
- CountDownTimer turnTimer
- CountDownTimer totalGameTimer
# void onCreate(Bundle)
# void onStart()
- void showExitGameDialog()
- void showGameEndDialog(GameRoom)
- void updateScoreUI(GameRoom)
- void setupGameBoard(GameRoom)
+ void onCardClicked(Card,int)
+ boolean isMyTurn()
- void handleCardSelection(int)
- void checkMatch(int,int)
+ void animateFlipOpen(ImageView,String)
+ void animateFlipClose(ImageView)
- void animateError(int)
- void animateSuccess(int)
- void checkIfGameFinished()
- void finishGame(GameRoom)
- void listenToGame()
- void startListeningToRoom()
- String calculateWinner(GameRoom)
- void startTurnTimer()
- void startTotalGameTimer()
- void goBack()
# void onStop()
# void onDestroy()
}


class screens.MemoryGameLogsTableActivity {
- Map<String,String> uidToNameMap
- MemoryGameLogAdapter adapter
# void onCreate(Bundle)
# void onResume()
# void onPause()
- void fetchUsersAndListenToGames()
- void listenToGamesRealtime()
}




screens.MemoryGameListener <|.. screens.MemoryGameActivity
bases.BaseActivity <|-- screens.MemoryGameActivity
bases.BaseActivity <|-- screens.MemoryGameLogsTableActivity
@enduml